<svg width="1600" height="1000" viewBox="0 0 1600 1000" fill="none" xmlns="http://www.w3.org/2000/svg">
  <defs>
    <linearGradient id="bg" x1="0" y1="0" x2="1600" y2="1000" gradientUnits="userSpaceOnUse">
      <stop stop-color="#F8F1E7" />
      <stop offset="0.56" stop-color="#E6D4BF" />
      <stop offset="1" stop-color="#CDA780" />
    </linearGradient>
    <linearGradient id="sun" x1="110" y1="120" x2="440" y2="480" gradientUnits="userSpaceOnUse">
      <stop stop-color="#FFF7ED" stop-opacity="0.94" />
      <stop offset="1" stop-color="#F3E2CC" stop-opacity="0.38" />
    </linearGradient>
    <linearGradient id="sofa" x1="360" y1="470" x2="940" y2="790" gradientUnits="userSpaceOnUse">
      <stop stop-color="#B77C51" />
      <stop offset="1" stop-color="#7A4F31" />
    </linearGradient>
    <linearGradient id="table" x1="610" y1="650" x2="890" y2="820" gradientUnits="userSpaceOnUse">
      <stop stop-color="#A87149" />
      <stop offset="1" stop-color="#714A2D" />
    </linearGradient>
    <linearGradient id="cabinet" x1="1110" y1="420" x2="1370" y2="780" gradientUnits="userSpaceOnUse">
      <stop stop-color="#9C6B46" />
      <stop offset="1" stop-color="#6E492E" />
    </linearGradient>
    <filter id="shadow" x="240" y="280" width="1140" height="620" filterUnits="userSpaceOnUse">
      <feDropShadow dx="0" dy="28" stdDeviation="26" flood-color="#5A3923" flood-opacity="0.17" />
    </filter>
  </defs>
  <rect width="1600" height="1000" fill="url(#bg)" />
  <rect x="0" y="0" width="600" height="620" fill="url(#sun)" />
  <rect x="0" y="730" width="1600" height="270" fill="#B78657" opacity="0.2" />
  <rect x="1180" y="120" width="260" height="250" rx="28" fill="#F7EFE5" opacity="0.8" />
  <rect x="1210" y="152" width="200" height="188" rx="20" fill="#E5D1BB" opacity="0.6" />
  <g filter="url(#shadow)">
    <rect x="350" y="474" width="650" height="210" rx="36" fill="url(#sofa)" />
    <rect x="370" y="408" width="610" height="110" rx="32" fill="#8D5E3C" />
    <rect x="400" y="426" width="550" height="74" rx="24" fill="#F3E8DA" />
    <rect x="405" y="520" width="160" height="152" rx="28" fill="#D8C3AF" opacity="0.86" />
    <rect x="578" y="520" width="220" height="152" rx="28" fill="#EEE2D2" opacity="0.88" />
    <rect x="816" y="520" width="160" height="152" rx="28" fill="#D9C4B0" opacity="0.86" />
    <rect x="390" y="680" width="610" height="34" rx="17" fill="#7B5538" opacity="0.88" />
    <rect x="425" y="706" width="44" height="112" rx="18" fill="#6F4A2E" />
    <rect x="891" y="706" width="44" height="112" rx="18" fill="#6F4A2E" />
  </g>
  <g filter="url(#shadow)">
    <rect x="640" y="720" width="300" height="116" rx="28" fill="url(#table)" />
    <rect x="678" y="742" width="224" height="22" rx="11" fill="#D2B596" opacity="0.9" />
    <rect x="692" y="776" width="196" height="20" rx="10" fill="#91603A" opacity="0.9" />
    <rect x="684" y="814" width="18" height="112" rx="8" fill="#714A2D" />
    <rect x="862" y="814" width="18" height="112" rx="8" fill="#714A2D" />
    <circle cx="720" cy="706" r="18" fill="#EADBCB" />
    <circle cx="900" cy="706" r="18" fill="#EADBCB" />
  </g>
  <g filter="url(#shadow)">
    <rect x="1110" y="470" width="250" height="278" rx="32" fill="url(#cabinet)" />
    <rect x="1132" y="496" width="206" height="52" rx="18" fill="#C18A5C" opacity="0.9" />
    <rect x="1132" y="560" width="206" height="70" rx="18" fill="#8A5A36" opacity="0.84" />
    <rect x="1132" y="642" width="206" height="74" rx="18" fill="#9A6840" opacity="0.88" />
    <rect x="1152" y="776" width="30" height="124" rx="10" fill="#6E492E" />
    <rect x="1288" y="776" width="30" height="124" rx="10" fill="#6E492E" />
  </g>
  <rect x="1022" y="408" width="114" height="180" rx="24" fill="#E9DAC8" opacity="0.9" />
  <rect x="1044" y="432" width="70" height="128" rx="16" fill="#D7C1A9" opacity="0.88" />
  <rect x="1072" y="384" width="14" height="88" rx="7" fill="#C29668" />
  <circle cx="1079" cy="374" r="30" fill="#F3E7D8" />
  <path d="M280 848C460 810 652 790 844 794C1028 798 1190 826 1348 874" stroke="#B78E64" stroke-width="34" stroke-linecap="round" opacity="0.18" />
  <rect x="90" y="116" width="150" height="536" rx="32" fill="#F3E6D6" opacity="0.72" />
  <rect x="118" y="156" width="22" height="420" rx="11" fill="#D2B089" opacity="0.45" />
  <rect x="160" y="156" width="22" height="420" rx="11" fill="#C9A27D" opacity="0.3" />
</svg>
