<svg xmlns="http://www.w3.org/2000/svg" viewBox="0 0 1200 800" fill="none">
  <defs>
    <linearGradient id="bg" x1="0" x2="1" y1="0" y2="1">
      <stop offset="0%" stop-color="#f3e8db"/>
      <stop offset="100%" stop-color="#d7bfaa"/>
    </linearGradient>
  </defs>
  <rect width="1200" height="800" fill="url(#bg)"/>
  <rect x="170" y="165" width="860" height="470" rx="42" fill="#fff6ee" fill-opacity="0.86"/>
  <path d="M350 520h500c32 0 58-26 58-58V380c0-32-26-58-58-58H350c-32 0-58 26-58 58v82c0 32 26 58 58 58Z" fill="#8c6242" fill-opacity="0.18"/>
  <circle cx="470" cy="398" r="48" fill="#8c6242" fill-opacity="0.28"/>
  <path d="M410 548h380c22 0 40 18 40 40v18H370v-18c0-22 18-40 40-40Z" fill="#8c6242" fill-opacity="0.28"/>
  <text x="600" y="690" text-anchor="middle" font-family="Arial, sans-serif" font-size="44" fill="#7a5a42">Junaid Furniture</text>
</svg>
