<svg width="1600" height="1000" viewBox="0 0 1600 1000" fill="none" xmlns="http://www.w3.org/2000/svg">
  <defs>
    <linearGradient id="bg" x1="0" y1="0" x2="1600" y2="1000" gradientUnits="userSpaceOnUse">
      <stop stop-color="#F6EFE6" />
      <stop offset="0.55" stop-color="#E8D8C5" />
      <stop offset="1" stop-color="#D4B99A" />
    </linearGradient>
    <linearGradient id="wood" x1="420" y1="430" x2="1160" y2="840" gradientUnits="userSpaceOnUse">
      <stop stop-color="#9C6B46" />
      <stop offset="1" stop-color="#6F4A2E" />
    </linearGradient>
    <linearGradient id="linen" x1="480" y1="390" x2="1000" y2="740" gradientUnits="userSpaceOnUse">
      <stop stop-color="#FFFFFF" />
      <stop offset="1" stop-color="#EAE0D4" />
    </linearGradient>
    <linearGradient id="sideTable" x1="1030" y1="470" x2="1290" y2="830" gradientUnits="userSpaceOnUse">
      <stop stop-color="#A56F45" />
      <stop offset="1" stop-color="#7A4F2E" />
    </linearGradient>
    <filter id="shadow" x="280" y="300" width="1120" height="540" filterUnits="userSpaceOnUse">
      <feDropShadow dx="0" dy="24" stdDeviation="24" flood-color="#5C3B24" flood-opacity="0.16" />
    </filter>
  </defs>
  <rect width="1600" height="1000" fill="url(#bg)" />
  <rect x="0" y="710" width="1600" height="290" fill="#C49C73" opacity="0.28" />
  <rect x="0" y="0" width="1600" height="260" fill="#FFF8F1" opacity="0.6" />
  <rect x="1250" y="110" width="190" height="230" rx="24" fill="#F8F2EA" opacity="0.85" />
  <rect x="1268" y="130" width="154" height="192" rx="16" fill="#E4D3C0" opacity="0.9" />
  <rect x="1298" y="152" width="94" height="150" rx="10" fill="#D8C0A6" opacity="0.95" />
  <rect x="70" y="100" width="150" height="540" rx="32" fill="#F4E8DA" opacity="0.75" />
  <rect x="132" y="140" width="22" height="420" rx="11" fill="#D1B089" opacity="0.5" />
  <g filter="url(#shadow)">
    <rect x="380" y="400" width="720" height="250" rx="26" fill="url(#wood)" />
    <rect x="405" y="365" width="670" height="110" rx="28" fill="#8E5F3C" />
    <rect x="430" y="380" width="620" height="82" rx="24" fill="url(#linen)" />
    <rect x="425" y="465" width="655" height="185" rx="26" fill="#F7F0E6" opacity="0.8" />
    <rect x="450" y="500" width="135" height="26" rx="13" fill="#D4C3B1" opacity="0.95" />
    <rect x="580" y="490" width="165" height="40" rx="20" fill="#EFE6DA" />
    <rect x="730" y="485" width="150" height="44" rx="22" fill="#F2EBE2" />
    <rect x="860" y="495" width="140" height="34" rx="17" fill="#E3D7C8" />
    <rect x="500" y="610" width="200" height="34" rx="17" fill="#D8C0A6" opacity="0.9" />
    <rect x="725" y="608" width="190" height="34" rx="17" fill="#D8C0A6" opacity="0.9" />
    <rect x="430" y="650" width="80" height="110" rx="18" fill="#7B5538" />
    <rect x="970" y="650" width="80" height="110" rx="18" fill="#7B5538" />
  </g>
  <g filter="url(#shadow)">
    <rect x="1080" y="500" width="210" height="220" rx="28" fill="url(#sideTable)" />
    <rect x="1100" y="520" width="170" height="44" rx="18" fill="#B57B4D" opacity="0.95" />
    <rect x="1100" y="578" width="170" height="120" rx="18" fill="#8A5A36" opacity="0.9" />
    <rect x="1125" y="724" width="26" height="115" rx="10" fill="#7A4F2E" />
    <rect x="1220" y="724" width="26" height="115" rx="10" fill="#7A4F2E" />
    <rect x="1108" y="470" width="94" height="36" rx="18" fill="#E9D8C7" />
    <rect x="1195" y="450" width="18" height="74" rx="9" fill="#C89C6F" />
    <circle cx="1204" cy="440" r="36" fill="#EFE3D5" />
  </g>
  <rect x="1030" y="440" width="76" height="76" rx="22" fill="#F1E4D6" opacity="0.95" />
  <rect x="1060" y="468" width="16" height="120" rx="8" fill="#C49D75" opacity="0.9" />
  <rect x="1008" y="580" width="120" height="18" rx="9" fill="#DEC8B2" opacity="0.9" />
  <path d="M320 852C500 812 682 792 864 796C1036 800 1188 826 1328 872" stroke="#B78E64" stroke-width="34" stroke-linecap="round" opacity="0.2" />
</svg>
