<svg width="1600" height="1000" viewBox="0 0 1600 1000" fill="none" xmlns="http://www.w3.org/2000/svg">
  <defs>
    <linearGradient id="bg" x1="0" y1="0" x2="1600" y2="1000" gradientUnits="userSpaceOnUse">
      <stop stop-color="#F7F0E7" />
      <stop offset="0.58" stop-color="#E7D6C2" />
      <stop offset="1" stop-color="#C9A47C" />
    </linearGradient>
    <linearGradient id="wall" x1="0" y1="0" x2="0" y2="420" gradientUnits="userSpaceOnUse">
      <stop stop-color="#FFF8F1" stop-opacity="0.92" />
      <stop offset="1" stop-color="#F0E1D0" stop-opacity="0.76" />
    </linearGradient>
    <linearGradient id="wood" x1="440" y1="430" x2="1190" y2="850" gradientUnits="userSpaceOnUse">
      <stop stop-color="#A36E47" />
      <stop offset="1" stop-color="#6F4A2E" />
    </linearGradient>
    <linearGradient id="linen" x1="470" y1="390" x2="1010" y2="720" gradientUnits="userSpaceOnUse">
      <stop stop-color="#FFFFFF" />
      <stop offset="1" stop-color="#EAE1D5" />
    </linearGradient>
    <linearGradient id="dresser" x1="1040" y1="420" x2="1360" y2="820" gradientUnits="userSpaceOnUse">
      <stop stop-color="#B07A4F" />
      <stop offset="1" stop-color="#7C5232" />
    </linearGradient>
    <filter id="shadow" x="250" y="290" width="1120" height="600" filterUnits="userSpaceOnUse">
      <feDropShadow dx="0" dy="28" stdDeviation="26" flood-color="#5B3821" flood-opacity="0.18" />
    </filter>
  </defs>
  <rect width="1600" height="1000" fill="url(#bg)" />
  <rect x="0" y="0" width="1600" height="420" fill="url(#wall)" />
  <rect x="0" y="770" width="1600" height="230" fill="#B68A5E" opacity="0.2" />
  <rect x="70" y="110" width="220" height="300" rx="32" fill="#F8F2EA" opacity="0.7" />
  <rect x="94" y="138" width="172" height="244" rx="24" fill="#DDBD9E" opacity="0.55" />
  <rect x="109" y="150" width="142" height="220" rx="18" fill="#F0E3D4" opacity="0.75" />
  <rect x="1290" y="105" width="176" height="250" rx="28" fill="#F4E8DA" opacity="0.72" />
  <rect x="1312" y="130" width="132" height="200" rx="18" fill="#D9C1A9" opacity="0.6" />
  <g filter="url(#shadow)">
    <rect x="390" y="430" width="720" height="235" rx="30" fill="url(#wood)" />
    <rect x="410" y="380" width="670" height="110" rx="28" fill="#8E5F3C" />
    <rect x="430" y="396" width="630" height="78" rx="22" fill="url(#linen)" />
    <rect x="432" y="500" width="650" height="172" rx="28" fill="#F6EFE7" opacity="0.84" />
    <rect x="468" y="620" width="170" height="32" rx="16" fill="#D8C2AE" opacity="0.95" />
    <rect x="650" y="608" width="190" height="40" rx="20" fill="#EFE5D8" />
    <rect x="822" y="606" width="165" height="38" rx="19" fill="#E4D7C8" />
    <rect x="432" y="660" width="82" height="116" rx="18" fill="#7C5537" />
    <rect x="968" y="660" width="82" height="116" rx="18" fill="#7C5537" />
  </g>
  <g filter="url(#shadow)">
    <rect x="1115" y="500" width="230" height="245" rx="30" fill="url(#dresser)" />
    <rect x="1135" y="520" width="190" height="46" rx="18" fill="#C08858" opacity="0.9" />
    <rect x="1135" y="580" width="190" height="56" rx="18" fill="#8C5C37" opacity="0.82" />
    <rect x="1135" y="646" width="190" height="76" rx="18" fill="#9B6840" opacity="0.9" />
    <rect x="1160" y="742" width="28" height="126" rx="10" fill="#6F4A2E" />
    <rect x="1268" y="742" width="28" height="126" rx="10" fill="#6F4A2E" />
    <rect x="1145" y="470" width="104" height="36" rx="18" fill="#EAD8C7" />
    <rect x="1246" y="448" width="20" height="80" rx="10" fill="#C99A6D" />
    <circle cx="1256" cy="438" r="34" fill="#F2E4D7" />
  </g>
  <rect x="990" y="440" width="76" height="76" rx="22" fill="#F2E5D7" opacity="0.96" />
  <rect x="1018" y="468" width="20" height="118" rx="10" fill="#C69B72" opacity="0.9" />
  <rect x="1000" y="576" width="118" height="18" rx="9" fill="#DEC9B6" opacity="0.9" />
  <path d="M320 854C496 816 672 798 848 798C1030 798 1182 824 1322 870" stroke="#B78E64" stroke-width="34" stroke-linecap="round" opacity="0.2" />
</svg>
